<svg xmlns="http://www.w3.org/2000/svg" width="758.8" height="396.9" viewBox="0 0 758.8 396.9"><g id="Layer_2" data-name="Layer 2"><g id="Layer_8" data-name="Layer 8"><path d="M105.9,228.4l-5.9-.2-6.4-.8a70.4,70.4,0,0,1-23.4-8.2,79.7,79.7,0,0,1-20.2-16,82.5,82.5,0,0,1-14.6-21.5,4.3,4.3,0,0,1-.7-2,1.5,1.5,0,0,1,1.7-1.7,2.3,2.3,0,0,1,2.2,1.5,62.2,62.2,0,0,0,4.8,6.9,88.4,88.4,0,0,0,6.8,7.1c12.8,11.3,26.6,17,41.4,17,10.5,0,18.4-1.4,23.8-4.3s7.9-6.7,7.9-11.7-2.9-11.2-8.9-18.2l-5.1-5.5c-1.8-2-3.6-4.1-5.3-6.3L92.1,149.7a283.9,283.9,0,0,1-17.2-23.4c-4.5-7-6.8-14.2-6.8-21.4a34.5,34.5,0,0,1,2.2-11.8,64,64,0,0,1,6.8-13.2,230.6,230.6,0,0,1-28-5.7c-7.3-2-12.4-4-15.1-6.1a17.1,17.1,0,0,1-4.6-3.8,5.1,5.1,0,0,1-1.5-2.8c0-1.1.8-1.7,2.4-1.7s4.1.8,6.8,2.4q6.6,4.6,18.3,7.2a203.1,203.1,0,0,0,26.3,3.7l5.1-5.8A73.8,73.8,0,0,1,106,51.7a124.3,124.3,0,0,1,23.9-10.4,167.8,167.8,0,0,1,24.8-5.9,142.5,142.5,0,0,1,22.2-2,52.3,52.3,0,0,1,14,2.1,36.9,36.9,0,0,1,12.9,6.2,12.9,12.9,0,0,1,5.3,10.6,11.6,11.6,0,0,1-1,5.1q-6,16.7-42.9,22.5a178,178,0,0,1-19,2.1q-10,.6-20.4.6c-5.2,0-10.4-.1-15.7-.4l-15.3-.8Q82.2,94,82.2,110.2T96,144.4c3.7,4.5,7.5,8.8,11.5,12.9l12,12.5a24,24,0,0,1,2.4,2.2l2.4,2.4c5.3,5.2,9.3,10.3,11.8,15.4a32.2,32.2,0,0,1,3.7,14.1c0,7.1-3,13-8.9,17.6S116.6,228.4,105.9,228.4Zm-2.7-154q16.5-.3,34.2-2.1a217.6,217.6,0,0,0,32.7-5.7c10-2.6,17.8-6,23.5-10.2,2.7-2.2,4.1-3.7,4.1-4.3s-2.8-2.3-8.5-2.9c-2.2-.4-4.6-.6-7-.8l-7-.2a107.6,107.6,0,0,0-50.4,12.6c-3.9,2.1-7.6,4.2-11.3,6.4A105.4,105.4,0,0,0,103.2,74.4Z" transform="translate(0 -23)" fill="#fff"/><path d="M185.8,214.3c-6.4,0-11.4-1.9-15-5.9s-5.3-9.6-5.3-17.1a76.1,76.1,0,0,1,1.8-15.5,141.2,141.2,0,0,1,4.6-16.6,99.7,99.7,0,0,1,5.7-13.4,171,171,0,0,1,11.6-20.5A154.3,154.3,0,0,1,204,106.4a83.5,83.5,0,0,1,16.5-13.9c5.6-3.5,11.2-5.3,16.7-5.3a13.6,13.6,0,0,1,11.2,5.3,19.1,19.1,0,0,1,4.3,12.4,23,23,0,0,1-4.4,13.3,41.2,41.2,0,0,1-7.5,9.1c-2.4,2-4.3,3-5.6,3s-1.9-.9-1.9-2.7a15,15,0,0,1,.5-3.1,36.4,36.4,0,0,1,1.4-4.4,43,43,0,0,0,2.3-5.9c.9-2.5,1.8-5.2,2.6-8.1a24.2,24.2,0,0,0,1-7.5c-3.1-.5-6.6.6-10.6,3.2a79,79,0,0,0-12,10.5,151.8,151.8,0,0,0-11.4,13.6,136.8,136.8,0,0,0-8.7,13.6c-1.8,3.1-3.7,7-5.8,11.6s-4,9.6-5.8,14.6-3.2,9.6-4.4,13.8c-.6,2.6-1.1,4.9-1.4,7.1a45.4,45.4,0,0,0-.5,5.9c0,7.6,2.7,11.4,8.2,11.4q20.1,0,44.4-25.6a88.9,88.9,0,0,0,8.9-10.5,2.2,2.2,0,0,1,2-1.2c1.9,0,2.9,1.2,2.9,3.4a3.8,3.8,0,0,1-1.2,2.9L235,185.5a111.7,111.7,0,0,1-13.4,13,92.7,92.7,0,0,1-17.5,11.2A40.6,40.6,0,0,1,185.8,214.3Z" transform="translate(0 -23)" fill="#fff"/><path d="M257,247.8c-10.1,0-15.2-5-15.2-14.8a38.2,38.2,0,0,1,1.4-9.4,101.2,101.2,0,0,1,6.9-18.2,154.9,154.9,0,0,1,8.4-15.3l5.8-8.9c1.9-3.1,4-6.2,6.1-9.5l11.8-18.9a19.5,19.5,0,0,0,3.2-9.9,9,9,0,0,0-4.1-8l-3.4-2.2-2-1.2-2.6,4.4c-1.2,1.9-2.3,3.7-3.4,5.3-3.4,4.7-7.3,9.9-11.7,15.5s-8.5,11.1-12.5,16.2-7.5,9.3-10.2,12.4a3.5,3.5,0,0,1-2.4,1.2,3.3,3.3,0,0,1-2.3-1.1,3,3,0,0,1-1.1-2.3,2.8,2.8,0,0,1,.9-1.9c6.3-7.1,12.4-14.4,18.3-21.8A194.7,194.7,0,0,0,265,135.6l2.7-4.6,2.7-4.3a17,17,0,0,1-3.6-5,14.8,14.8,0,0,1-1.5-6.2,7.9,7.9,0,0,1,.9-3.8,4.2,4.2,0,0,1,3.4-2h.5c2.3,0,4.1,1.1,5.6,3.4s2.7,6.5,2.7,12.6a25.3,25.3,0,0,0,6.2,3.4l5.9,2.2a42.9,42.9,0,0,1,8.3,3.8c2.4,1.5,3.5,4.2,3.5,8.3a20.2,20.2,0,0,1-.1,2.3,18.7,18.7,0,0,1-.4,2.5c-.6,3.3-2.2,7.2-4.7,11.8s-5.3,9.3-8.6,14.3-6.4,9.5-9.4,13.9c-1,1.3-1.9,2.5-2.7,3.7l-2.4,3.8c-13.9,22.4-20.2,36.5-18.9,42.1a2,2,0,0,0,2.2,1.5c2.4,0,5.3-1,8.7-2.9a119.3,119.3,0,0,0,13.6-9.1,126.3,126.3,0,0,0,13-12q4.9-4.7,12.6-13.5l15.3-17.5a26,26,0,0,1,2.5-3.1l2.6-2.9a41.5,41.5,0,0,1,4.8-5.9l4.9-5.3a2.6,2.6,0,0,1,2.1-1.2c1.8,0,2.7,1,2.7,2.9a6.3,6.3,0,0,1-1.4,3.4c-1.7,2.3-3.5,4.6-5.5,7s-3.9,4.7-5.7,6.8-3.3,4-5.2,6.1-3.7,4.2-5.4,6.5c-5.5,6.5-11.2,13-17,19.7a196.2,196.2,0,0,1-16.5,17.1,87.9,87.9,0,0,1-11.7,8.6A27.7,27.7,0,0,1,257,247.8Z" transform="translate(0 -23)" fill="#fff"/><path d="M342.3,207.1c-4.5,0-8-1.5-10.3-4.5s-3.5-7.1-3.5-12.5a47.3,47.3,0,0,1,.7-8,74,74,0,0,1,3.8-12.2,151,151,0,0,1,6.4-14.4c2.4-4.9,4.6-9,6.5-12.4l6.4-10.7c2.5-4.2,4.6-7.7,6.2-10.6a19.9,19.9,0,0,1,2.7-3.8c1.1-2.3,3.2-4.1,6.3-5.5a20.4,20.4,0,0,1,8.5-2.1c3.3,0,5,1.1,5,3.2a6.3,6.3,0,0,1-1.4,3.6l-10.8,17.3c-4.1,6.6-8.1,13.3-12,20.3a166.5,166.5,0,0,0-9.5,19.7c-2.5,6.2-3.8,11.5-3.8,15.9s1.7,6.8,5.1,6.8,5-1.3,8.2-3.7a79.6,79.6,0,0,0,9.5-8.2c3-3.1,5.4-5.5,7-7.3l4.8-5.1a17.1,17.1,0,0,0,2.2-2.5l2-2.6a2.1,2.1,0,0,1,1.9-1.2c1.9,0,2.9,1.2,2.9,3.4a3.8,3.8,0,0,1-1.2,2.9l-5.3,6.6-5.6,6.3c-2.8,3.2-5.8,6.5-9.2,9.8a52.8,52.8,0,0,1-10.9,8.2A25.2,25.2,0,0,1,342.3,207.1Zm39.2-105.9a7.3,7.3,0,0,1-5.3-2A6.7,6.7,0,0,1,374,94a9.9,9.9,0,0,1,2.9-7.1,9.6,9.6,0,0,1,6.8-2.9,6.8,6.8,0,0,1,5.9,2.7,8.2,8.2,0,0,1,1.6,6.3,10.9,10.9,0,0,1-3.6,5.9A8.8,8.8,0,0,1,381.5,101.2Z" transform="translate(0 -23)" fill="#fff"/><path d="M393.4,226.7q-18.9,0-18.9-21.6a68.9,68.9,0,0,1,1.8-14.5,184.1,184.1,0,0,1,5-17.9q3.1-8.5,8.1-19.5c3.3-7.4,6.7-14.5,10.3-21.4-8.9,2.9-16.4,4.3-22.5,4.3a17.9,17.9,0,0,1-5.8-.7c-3.1-.7-4.6-1.8-4.6-3.4a2.1,2.1,0,0,1,1.5-1.9,8,8,0,0,1,4.5-.3l1.8.3h1.8c7.6,0,16.8-2.3,27.4-6.8Q432.4,72.2,467,40a48.5,48.5,0,0,1,14.7-10,39.5,39.5,0,0,1,15.6-3.6,16,16,0,0,1,10.5,3.5c2.9,2.4,4.3,6.1,4.3,11.3a30.9,30.9,0,0,1-2.9,12.3c-4.7,10-13.4,20.4-25.9,31l-9.5,7.7c-3.2,2.5-6.5,4.8-9.9,7.1a263.9,263.9,0,0,1-42.4,24c-2.9,5.1-5.8,10.7-8.7,16.7s-5.8,12.3-8.5,18.9c-1.1,2.6-2.3,5.3-3.4,8.2s-2.2,5.8-3.1,8.5l-4.2,10.2a98.7,98.7,0,0,0-3.8,11.6,42.3,42.3,0,0,0-1.7,11.6,16.1,16.1,0,0,0,1.5,7.5,5.4,5.4,0,0,0,5.2,2.9c3.8,0,7.6-2.3,11.6-7.1a119.8,119.8,0,0,0,10.5-15.1c2.1-3.8,4.1-7.8,5.9-12a105.6,105.6,0,0,0,4.6-12.4,49.4,49.4,0,0,0,2.1-9.3l.2-2.4c-4.3-1.8-6.5-5.8-6.5-11.9a20.9,20.9,0,0,1,2.5-10.7c1.7-2.9,3.8-4.3,6.2-4.3,5.2,0,7.8,4.7,7.8,14,0,1.6-.1,3.5-.3,5.5s-.4,4.1-.7,6.4l4.7,1a35.6,35.6,0,0,0,5.2.4,20,20,0,0,0,13.9-5,93.8,93.8,0,0,0,11.1-12.1,2.5,2.5,0,0,1,2.1-1.3,2.2,2.2,0,0,1,2,1.3,5.2,5.2,0,0,1,.7,2.9,6.5,6.5,0,0,1-.7,2.9q-12.6,18.6-28.8,18.6a38,38,0,0,1-11.2-1.9l-1.2,4.1-.6,2.3-.6,2.1c-1.5,3.8-3.6,8.6-6.4,14.4a154.8,154.8,0,0,1-9.8,17A68.9,68.9,0,0,1,407,221C402.6,224.8,398.1,226.7,393.4,226.7Zm94-187.9c-3.4,1.9-7.8,5.6-13.1,11s-11,11.8-17,19.2-11.8,15.1-17.5,22.9-10.7,15.2-14.9,22.2c10.6-5.7,21.2-11.9,31.6-18.6a166.8,166.8,0,0,0,27.8-22.1,83.1,83.1,0,0,0,18.6-27.1,16.6,16.6,0,0,0,1.4-5.9c0-3.7-1.9-5.5-5.8-5.5S491.6,36.2,487.4,38.8Z" transform="translate(0 -23)" fill="#fff"/><path d="M467.3,226.7q-18.9,0-18.9-21.6a68.9,68.9,0,0,1,1.8-14.5,184.1,184.1,0,0,1,5-17.9q3.2-8.5,8.1-19.5c3.3-7.4,6.7-14.5,10.3-21.4-8.9,2.9-16.4,4.3-22.6,4.3a18.7,18.7,0,0,1-5.8-.7c-3-.7-4.6-1.8-4.6-3.4a2.1,2.1,0,0,1,1.6-1.9,7.8,7.8,0,0,1,4.5-.3l1.8.3h1.8c7.6,0,16.7-2.3,27.4-6.8Q506.2,72.2,540.9,40a49.2,49.2,0,0,1,14.6-10,39.9,39.9,0,0,1,15.7-3.6,16,16,0,0,1,10.5,3.5c2.8,2.4,4.2,6.1,4.2,11.3A29.3,29.3,0,0,1,583,53.5c-4.6,10-13.3,20.4-25.9,31-3,2.6-6.2,5.2-9.4,7.7s-6.6,4.8-10,7.1a263,263,0,0,1-42.3,24c-2.9,5.1-5.9,10.7-8.8,16.7s-5.7,12.3-8.4,18.9c-1.2,2.6-2.3,5.3-3.4,8.2s-2.2,5.8-3.2,8.5l-4.1,10.2a120.9,120.9,0,0,0-3.9,11.6,46.5,46.5,0,0,0-1.7,11.6,16.1,16.1,0,0,0,1.6,7.5,5.4,5.4,0,0,0,5.2,2.9c3.7,0,7.6-2.3,11.5-7.1a111,111,0,0,0,10.6-15.1c2.1-3.8,4-7.8,5.9-12a127.2,127.2,0,0,0,4.6-12.4,49.4,49.4,0,0,0,2.1-9.3l.2-2.4c-4.4-1.8-6.5-5.8-6.5-11.9a20.9,20.9,0,0,1,2.5-10.7c1.7-2.9,3.8-4.3,6.2-4.3,5.1,0,7.7,4.7,7.7,14,0,1.6-.1,3.5-.2,5.5s-.4,4.1-.7,6.4l4.7,1a34.6,34.6,0,0,0,5.2.4,20,20,0,0,0,13.9-5,86.7,86.7,0,0,0,11-12.1,2.8,2.8,0,0,1,2.2-1.3,2.2,2.2,0,0,1,2,1.3,6.2,6.2,0,0,1,.7,2.9,8.2,8.2,0,0,1-.7,2.9c-8.4,12.4-18.1,18.6-28.9,18.6a38,38,0,0,1-11.1-1.9l-1.2,4.1-.6,2.3a8.3,8.3,0,0,0-.6,2.1c-1.5,3.8-3.6,8.6-6.5,14.4a140.2,140.2,0,0,1-9.8,17A66,66,0,0,1,480.8,221C476.5,224.8,471.9,226.7,467.3,226.7ZM561.2,38.8c-3.4,1.9-7.7,5.6-13,11a249.5,249.5,0,0,0-17,19.2c-6,7.5-11.8,15.1-17.6,22.9s-10.7,15.2-14.8,22.2c10.6-5.7,21.1-11.9,31.6-18.6a166.8,166.8,0,0,0,27.8-22.1,82.8,82.8,0,0,0,18.5-27.1,15,15,0,0,0,1.5-5.9c0-3.7-1.9-5.5-5.8-5.5S565.4,36.2,561.2,38.8Z" transform="translate(0 -23)" fill="#fff"/><path d="M525.6,249.7a10.8,10.8,0,0,1-9.3-4.7c-2.2-3.2-3.3-7.5-3.3-13a34.6,34.6,0,0,1,.3-4.3,41.3,41.3,0,0,1,.7-4.9,336.3,336.3,0,0,1,12.5-46.7,353.5,353.5,0,0,1,20.9-48.7,77.3,77.3,0,0,1-12.4,3.1,57.5,57.5,0,0,1-10.3,1c-3.6,0-6.2-.4-7.8-1.3s-2.4-1.8-2.4-2.6,1.6-2.4,4.8-2.4h2.5l2.1.2q11,0,27.6-6.6a393.2,393.2,0,0,1,30.1-46.6,267.2,267.2,0,0,1,33.2-36.9A56.5,56.5,0,0,1,628.4,26a30.1,30.1,0,0,1,12-3A14.6,14.6,0,0,1,651,27.2q4.2,4.4,4.2,13.2A28.3,28.3,0,0,1,653,50.9c-4.2,10.5-12.4,20.9-24.7,31.2-3,2.6-6.2,5.1-9.4,7.5s-6.5,4.8-9.7,7c-6.8,4.6-13.9,8.8-21.2,12.9a213.2,213.2,0,0,1-21.7,10.4,333.7,333.7,0,0,0-26.1,55.7c-7,19.9-10.6,36.8-10.9,50.9,0,6.4,1.4,9.6,4.3,9.6a8.1,8.1,0,0,0,3.2-.7l4.1-1.7a102.4,102.4,0,0,0,12.6-8.9,119.4,119.4,0,0,0,10.6-10.7c1.3-1.4,3-3.4,5-5.8l6.7-8.2,9.1-11.2c3.1-3.9,6-7.4,8.8-10.6s6.4-7.6,9.7-11.2a2.8,2.8,0,0,1,2.2-1.2c1.9,0,2.9,1.1,2.9,3.2a4.3,4.3,0,0,1-1.5,3.1l-5.7,7c-2,2.5-3.9,4.7-5.7,6.8s-2.8,3.4-5.7,6.7l-9.8,11.7-10.5,12.7c-3.6,4.5-7,8.5-10.1,12s-5.5,6.3-7.5,8.3Q538.9,249.7,525.6,249.7ZM635.1,34.1q-15,12-31.4,31.5a370.2,370.2,0,0,0-31.1,43.9,250.3,250.3,0,0,0,23.2-13.7A251.4,251.4,0,0,0,617.9,79a139.3,139.3,0,0,0,17.9-18.3,61.1,61.1,0,0,0,10.5-18.1,18.6,18.6,0,0,0,.9-5.5c0-4.1-1.6-6.1-4.8-6.1S637.7,32.1,635.1,34.1Z" transform="translate(0 -23)" fill="#fff"/><path d="M578.7,283.4a9.9,9.9,0,0,1-8.1-3.8c-2.1-2.5-3.1-5.8-3.1-9.8a35.9,35.9,0,0,1,6.5-20.3,81.9,81.9,0,0,1,16.5-18.1,164,164,0,0,1,21.7-15,203.8,203.8,0,0,1,21.9-11c2.1-4.4,4.6-9.7,7.3-16s5.6-13,8.6-20.1,5.8-14.1,8.4-21.1a190.8,190.8,0,0,0,6-18.9c-2.6,5-5.6,10.2-9.1,15.7a159.2,159.2,0,0,1-10.9,15.2,69.4,69.4,0,0,1-11.2,11.6c-3.7,3-7.3,4.5-10.7,4.5-9.8,0-14.8-5.8-14.8-17.4a60,60,0,0,1,3.3-18.7,140.9,140.9,0,0,1,8.1-19.3c3.3-6.3,6.4-12,9.5-17l-2.9.4H623a28.9,28.9,0,0,1-12.5-2.7,21.8,21.8,0,0,1-8.8-7.2c-1.5-2.8-2.2-4.6-2.2-5.4v-.2q0-1.5,1.2-1.5a4,4,0,0,1,2.9,1.5c5.4,6.1,12.7,9.2,22.1,9.2a51.2,51.2,0,0,0,7.7-.7l4.6-7.8a36.7,36.7,0,0,1,7.8-9.4q3.2-2.7,4.8-2.7a3.1,3.1,0,0,1,2.9,1.9,10.2,10.2,0,0,1,1,4.9,26.8,26.8,0,0,1-2.6,10.5,19.3,19.3,0,0,1-8.1,9.3q-17.1,24.3-21.8,50.7a29.9,29.9,0,0,0-.7,6c0,4.5,1.4,6.8,4.1,6.8s7.6-3,12.6-9c1.8-2.1,4.4-5.7,7.8-10.7s6.9-10.9,10.7-17.2,7.3-12.7,10.3-19a86.5,86.5,0,0,0,6.3-16,7,7,0,0,1,3.1-5,9.8,9.8,0,0,1,4.9-1.6,6.8,6.8,0,0,1,3.8,1.1,4.4,4.4,0,0,1,1.6,3.8c0,2.1-.2,4.3-.4,6.6a52.4,52.4,0,0,1-1.3,7.4,366,366,0,0,1-10.2,37.6c-1.1,3.2-2.3,6.5-3.4,9.8s-2.3,6.6-3.6,9.8c-2.1,5.5-4.3,10.7-6.5,15.7l-5.6,13.3a124,124,0,0,0,10.9-7.6,74.9,74.9,0,0,0,9.2-8.6l4.8-5.2c1.5-1.7,2.8-3.3,4.1-5a2.2,2.2,0,0,1,2-1.2c1.9,0,2.9,1.2,2.9,3.4a3.8,3.8,0,0,1-1.2,2.9q-2.7,3.4-5.4,6.6l-5.5,6.3a75.2,75.2,0,0,1-11.6,10.4,105.6,105.6,0,0,1-15.6,9.4c-3.7,7.8-7.9,16.1-12.7,25A209.3,209.3,0,0,1,621.3,256a89,89,0,0,1-19.5,19.7A38.4,38.4,0,0,1,578.7,283.4Zm.9-8c2.6,0,6.7-2.5,12.4-7.5,2.4-2.1,5-4.7,7.9-7.8s5.4-6,7.8-8.8a49.3,49.3,0,0,0,4.9-6.2c2.6-3.9,5.3-8.3,8.1-13.4s5.7-10.7,8.6-16.6a199.7,199.7,0,0,0-18.7,10.6,115.1,115.1,0,0,0-17.1,13.4,68.2,68.2,0,0,0-12.5,15,28.8,28.8,0,0,0-4.7,15.5C576.3,273.4,577.4,275.4,579.6,275.4Z" transform="translate(0 -23)" fill="#fff"/><path d="M56.7,404.4l-4.4-.2-4.6-.5a49.5,49.5,0,0,1-17-6A56.6,56.6,0,0,1,16,386.1,61.6,61.6,0,0,1,5.5,370.4a2.4,2.4,0,0,1-.6-1.4c0-.8.4-1.2,1.3-1.2a1.6,1.6,0,0,1,1.5,1.1,47.5,47.5,0,0,0,3.6,5,57.6,57.6,0,0,0,4.9,5.2c9.3,8.2,19.3,12.3,30.1,12.3,7.6,0,13.3-1.1,17.2-3.1s5.8-4.9,5.8-8.5-2.2-8.2-6.5-13.2l-3.7-4.1c-1.3-1.4-2.6-2.9-3.9-4.6l-8.6-10.7a205.9,205.9,0,0,1-12.5-17,28.3,28.3,0,0,1-4.9-15.5,25,25,0,0,1,1.6-8.6,43.7,43.7,0,0,1,4.9-9.6,163.2,163.2,0,0,1-20.3-4.1c-5.3-1.5-9-3-11-4.5a11.9,11.9,0,0,1-3.3-2.7,4.4,4.4,0,0,1-1.1-2c0-.8.6-1.3,1.8-1.3a10.5,10.5,0,0,1,4.9,1.8A36.9,36.9,0,0,0,20,288.9a156.7,156.7,0,0,0,19.1,2.7l3.7-4.2A53.7,53.7,0,0,1,56.7,276a89.6,89.6,0,0,1,17.4-7.5,111.7,111.7,0,0,1,18-4.3,96.5,96.5,0,0,1,16.1-1.4,38.2,38.2,0,0,1,10.2,1.5,27.7,27.7,0,0,1,9.3,4.4,9.4,9.4,0,0,1,3.9,7.8,8.7,8.7,0,0,1-.7,3.7c-2.9,8.1-13.3,13.5-31.1,16.3-4.4.7-9,1.2-13.9,1.5s-9.8.5-14.8.5-7.6-.1-11.4-.3l-11.1-.6c-6.1,6.1-9.2,13.1-9.2,20.9s3.4,16.5,10,24.8c2.7,3.3,5.5,6.5,8.4,9.5l8.7,9,1.8,1.6,1.7,1.8a41.7,41.7,0,0,1,8.6,11.1,24,24,0,0,1,2.7,10.3c0,5.2-2.2,9.4-6.5,12.8S64.4,404.4,56.7,404.4Zm-2-111.9c8-.1,16.3-.6,24.8-1.5a175.5,175.5,0,0,0,23.8-4.1c7.2-1.9,12.9-4.4,17-7.4,2-1.7,3-2.7,3-3.2s-2-1.6-6.1-2.1l-5.1-.5-5.1-.2a78.1,78.1,0,0,0-36.6,9.1c-2.8,1.6-5.6,3.1-8.2,4.7A77.1,77.1,0,0,0,54.7,292.5Z" transform="translate(0 -23)" fill="#fff"/><path d="M114.7,394.2c-4.7,0-8.3-1.4-10.9-4.3s-3.9-7-3.9-12.4a53.5,53.5,0,0,1,1.4-11.3,81.9,81.9,0,0,1,3.3-12,59.1,59.1,0,0,1,4.1-9.8,134,134,0,0,1,8.5-14.9,104.5,104.5,0,0,1,10.7-13.7,60.8,60.8,0,0,1,12-10.1,22.4,22.4,0,0,1,12.1-3.9,10,10,0,0,1,8.2,3.9,14.4,14.4,0,0,1,3.1,9,16.5,16.5,0,0,1-3.2,9.6,28,28,0,0,1-5.4,6.6c-1.8,1.5-3.2,2.2-4.1,2.2s-1.4-.6-1.4-1.9a12,12,0,0,1,.3-2.3,29.6,29.6,0,0,1,1.1-3.1c.5-1.1,1-2.5,1.7-4.4s1.2-3.7,1.8-5.9a16,16,0,0,0,.7-5.4c-2.2-.4-4.8.4-7.6,2.4a48.4,48.4,0,0,0-8.7,7.5,100.1,100.1,0,0,0-8.3,10,79.1,79.1,0,0,0-6.3,9.8c-1.3,2.3-2.7,5.1-4.3,8.5s-2.9,6.9-4.2,10.5-2.3,7-3.2,10.1-.8,3.6-1,5.1a37.7,37.7,0,0,0-.4,4.4c0,5.5,2,8.2,6,8.2,9.8,0,20.5-6.2,32.2-18.6a53.8,53.8,0,0,0,6.5-7.6,1.6,1.6,0,0,1,1.4-.9c1.4,0,2.1.9,2.1,2.5a2.8,2.8,0,0,1-.8,2.1l-7.8,9.2a88,88,0,0,1-9.7,9.4,74.3,74.3,0,0,1-12.7,8.2A30.3,30.3,0,0,1,114.7,394.2Z" transform="translate(0 -23)" fill="#fff"/><path d="M166.4,418.5c-7.4,0-11-3.6-11-10.8a26,26,0,0,1,1-6.8,73,73,0,0,1,5-13.2,100.5,100.5,0,0,1,6.1-11.1l4.2-6.5,4.4-6.9,8.6-13.7a13.7,13.7,0,0,0,2.3-7.2,6.4,6.4,0,0,0-3-5.8l-2.4-1.6-1.4-.9-2,3.2q-1.2,2.1-2.4,3.9c-2.5,3.4-5.3,7.1-8.5,11.2l-9.1,11.8c-3,3.8-5.4,6.8-7.4,9a2.6,2.6,0,0,1-1.8.9,2.7,2.7,0,0,1-1.7-.8,2.5,2.5,0,0,1-.7-1.7,1.9,1.9,0,0,1,.7-1.4c4.5-5.2,9-10.4,13.2-15.8A138,138,0,0,0,172.2,337l2-3.3,1.9-3.2a10.3,10.3,0,0,1-2.5-3.6,10.1,10.1,0,0,1-1.2-4.5,6.4,6.4,0,0,1,.7-2.8,3,3,0,0,1,2.5-1.4h.3a4.8,4.8,0,0,1,4.1,2.4c1.3,1.7,1.9,4.7,1.9,9.2a20.9,20.9,0,0,0,4.6,2.5l4.2,1.5a31.6,31.6,0,0,1,6.1,2.9c1.7,1,2.5,3,2.5,5.9v1.7l-.3,1.9a33.1,33.1,0,0,1-3.4,8.5c-1.9,3.3-3.9,6.8-6.3,10.4s-4.6,6.9-6.9,10.1l-1.9,2.7c-.6.9-1.2,1.8-1.7,2.7-10.1,16.3-14.7,26.6-13.8,30.7a1.5,1.5,0,0,0,1.6,1,13,13,0,0,0,6.3-2.1,77.4,77.4,0,0,0,9.9-6.6,103.2,103.2,0,0,0,9.5-8.7c2.3-2.2,5.4-5.5,9.2-9.9l11-12.6a21.1,21.1,0,0,1,1.9-2.3l1.8-2.1a32.4,32.4,0,0,1,3.5-4.2l3.6-3.9a1.9,1.9,0,0,1,1.6-.9c1.2,0,1.9.7,1.9,2.1a4.8,4.8,0,0,1-1.1,2.5c-1.1,1.6-2.5,3.3-3.9,5.1l-4.2,4.9-3.7,4.4c-1.4,1.5-2.7,3.1-4,4.8l-12.3,14.3a131,131,0,0,1-12,12.4,63.6,63.6,0,0,1-8.5,6.2A19.6,19.6,0,0,1,166.4,418.5Z" transform="translate(0 -23)" fill="#fff"/><path d="M228.4,388.9a9.1,9.1,0,0,1-7.5-3.2c-1.7-2.2-2.6-5.2-2.6-9.1a30.9,30.9,0,0,1,.6-5.8,42.9,42.9,0,0,1,2.7-8.9,106.2,106.2,0,0,1,4.7-10.5c1.7-3.5,3.3-6.5,4.7-8.9s2.8-4.9,4.7-7.9l4.5-7.6a13.6,13.6,0,0,1,1.9-2.8,8.4,8.4,0,0,1,4.6-4,14.7,14.7,0,0,1,6.1-1.5c2.5,0,3.7.8,3.7,2.3a4.8,4.8,0,0,1-1,2.6l-7.9,12.6q-4.5,7.2-8.7,14.7a123.9,123.9,0,0,0-6.9,14.4c-1.8,4.5-2.8,8.3-2.8,11.5s1.3,4.9,3.7,4.9,3.7-.9,6-2.6a64.4,64.4,0,0,0,6.9-6l5.1-5.3,3.5-3.7,1.6-1.8,1.4-1.9a1.6,1.6,0,0,1,1.4-.9c1.4,0,2.1.9,2.1,2.5a2.9,2.9,0,0,1-.9,2.1l-3.8,4.8-4.1,4.5a88.1,88.1,0,0,1-6.7,7.2,33.9,33.9,0,0,1-7.9,5.9A17.9,17.9,0,0,1,228.4,388.9ZM256.9,312a5.4,5.4,0,0,1-3.9-1.5,4.7,4.7,0,0,1-1.6-3.7,7.3,7.3,0,0,1,2.1-5.2,6.9,6.9,0,0,1,5-2.1,5.2,5.2,0,0,1,4.3,2,5.9,5.9,0,0,1,1.1,4.5,8.9,8.9,0,0,1-2.6,4.4A6.6,6.6,0,0,1,256.9,312Z" transform="translate(0 -23)" fill="#fff"/><path d="M265.5,403.2c-9.2,0-13.7-5.3-13.7-15.7a47.6,47.6,0,0,1,1.3-10.5c.9-4,2.1-8.4,3.6-13.1s3.5-8.8,5.9-14.1,4.9-10.6,7.5-15.6c-6.5,2.1-11.9,3.2-16.4,3.2a11.7,11.7,0,0,1-4.2-.6c-2.2-.4-3.4-1.3-3.4-2.4s.4-1.1,1.2-1.4a5.3,5.3,0,0,1,3.2-.2l1.4.2h1.3c5.5,0,12.1-1.7,19.9-5q20.7-37,45.9-60.5a35.5,35.5,0,0,1,10.6-7.2,28.3,28.3,0,0,1,11.4-2.6,11.4,11.4,0,0,1,7.6,2.5c2.1,1.7,3.1,4.4,3.1,8.2a22.5,22.5,0,0,1-2.1,9c-3.4,7.2-9.7,14.7-18.8,22.5l-6.9,5.5c-2.3,1.8-4.7,3.6-7.2,5.2A189.1,189.1,0,0,1,285.9,328c-2.1,3.8-4.2,7.8-6.3,12.2s-4.2,8.9-6.2,13.7l-2.5,6c-.8,2.1-1.5,4.1-2.2,6.1l-3,7.4a60.5,60.5,0,0,0-2.8,8.5,29.2,29.2,0,0,0-1.3,8.4,11.2,11.2,0,0,0,1.2,5.5,3.8,3.8,0,0,0,3.7,2.1c2.7,0,5.5-1.7,8.4-5.2a83.5,83.5,0,0,0,7.7-11c1.5-2.7,2.9-5.6,4.3-8.7s2.4-6.1,3.3-9a30.4,30.4,0,0,0,1.5-6.8l.2-1.7c-3.2-1.3-4.8-4.2-4.8-8.6a14.6,14.6,0,0,1,1.9-7.8c1.2-2.1,2.7-3.1,4.5-3.1,3.7,0,5.6,3.4,5.6,10.2,0,1.1-.1,2.5-.2,3.9s-.3,3-.5,4.7l3.4.7,3.8.3a14.3,14.3,0,0,0,10.1-3.7,57.5,57.5,0,0,0,8-8.8,2.3,2.3,0,0,1,1.6-.8,1.6,1.6,0,0,1,1.4.8,3.8,3.8,0,0,1,.5,2.2,4.1,4.1,0,0,1-.5,2.1c-6.1,9-13.1,13.5-20.9,13.5a28.7,28.7,0,0,1-8.1-1.4l-.9,3c-.1.6-.3,1.1-.4,1.7a8.8,8.8,0,0,0-.5,1.5,109.8,109.8,0,0,1-4.6,10.4,120.5,120.5,0,0,1-7.2,12.4,47.6,47.6,0,0,1-8.8,10.3A14.5,14.5,0,0,1,265.5,403.2Zm68.3-136.6c-2.5,1.4-5.7,4.1-9.5,8s-8,8.6-12.4,14-8.6,11-12.7,16.7a174.3,174.3,0,0,0-10.8,16.1c7.7-4.2,15.4-8.6,22.9-13.5a126.2,126.2,0,0,0,20.3-16.1A60,60,0,0,0,345,272.1a11.9,11.9,0,0,0,1.1-4.2c0-2.7-1.4-4.1-4.2-4.1S336.8,264.8,333.8,266.6Z" transform="translate(0 -23)" fill="#fff"/><path d="M319.2,403.2c-9.2,0-13.8-5.3-13.8-15.7a54.5,54.5,0,0,1,1.3-10.5,127.6,127.6,0,0,1,3.7-13.1c1.5-4.1,3.4-8.8,5.8-14.1s4.9-10.6,7.5-15.6c-6.4,2.1-11.9,3.2-16.3,3.2a12.7,12.7,0,0,1-4.3-.6c-2.2-.4-3.3-1.3-3.3-2.4a1.6,1.6,0,0,1,1.1-1.4,5.8,5.8,0,0,1,3.3-.2l1.3.2h1.3c5.5,0,12.2-1.7,19.9-5q20.9-37,45.9-60.5a36,36,0,0,1,10.7-7.2,27.5,27.5,0,0,1,11.3-2.6,11.7,11.7,0,0,1,7.7,2.5c2,1.7,3.1,4.4,3.1,8.2a22.5,22.5,0,0,1-2.1,9c-3.5,7.2-9.7,14.7-18.9,22.5-2.2,1.9-4.5,3.7-6.8,5.5s-4.8,3.6-7.2,5.2A193.4,193.4,0,0,1,339.6,328c-2.1,3.8-4.3,7.8-6.4,12.2s-4.1,8.9-6.1,13.7c-.9,1.9-1.7,3.9-2.5,6s-1.6,4.1-2.3,6.1l-3,7.4a77,77,0,0,0-2.8,8.5,32.7,32.7,0,0,0-1.2,8.4,12.5,12.5,0,0,0,1.1,5.5,4,4,0,0,0,3.8,2.1c2.7,0,5.5-1.7,8.4-5.2a82.8,82.8,0,0,0,7.6-11,88.1,88.1,0,0,0,4.3-8.7,77.7,77.7,0,0,0,3.4-9,37.3,37.3,0,0,0,1.5-6.8v-1.7c-3.1-1.3-4.7-4.2-4.7-8.6a15.5,15.5,0,0,1,1.8-7.8c1.3-2.1,2.8-3.1,4.5-3.1q5.7,0,5.7,10.2c0,1.1-.1,2.5-.2,3.9s-.3,3-.5,4.7a27.9,27.9,0,0,0,3.4.7l3.8.3a14.5,14.5,0,0,0,10.1-3.7,63.2,63.2,0,0,0,8-8.8,2.3,2.3,0,0,1,1.6-.8,1.7,1.7,0,0,1,1.4.8,4.8,4.8,0,0,1,.5,2.2,5.4,5.4,0,0,1-.5,2.1q-9.1,13.5-21,13.5a29.9,29.9,0,0,1-8.1-1.4l-.8,3a10.9,10.9,0,0,1-.5,1.7c-.1.5-.3,1-.4,1.5-1.1,2.8-2.6,6.3-4.7,10.4a103.7,103.7,0,0,1-7.1,12.4A47.6,47.6,0,0,1,329,399C325.8,401.8,322.6,403.2,319.2,403.2Zm68.2-136.6a53,53,0,0,0-9.5,8,185.3,185.3,0,0,0-12.3,14c-4.3,5.4-8.6,11-12.8,16.7s-7.7,11-10.8,16.1c7.8-4.2,15.4-8.6,23-13.5a121.1,121.1,0,0,0,20.2-16.1,61.9,61.9,0,0,0,13.5-19.7,11.4,11.4,0,0,0,1-4.2c0-2.7-1.4-4.1-4.2-4.1S390.5,264.8,387.4,266.6Z" transform="translate(0 -23)" fill="#fff"/><path d="M361.6,419.9a7.9,7.9,0,0,1-6.8-3.4c-1.6-2.3-2.4-5.5-2.4-9.5,0-.9.1-2,.2-3.1s.3-2.4.5-3.5a233.4,233.4,0,0,1,9.1-34A251.6,251.6,0,0,1,377.4,331a63.9,63.9,0,0,1-9.1,2.3,41.1,41.1,0,0,1-7.5.7,13.3,13.3,0,0,1-5.6-.9c-1.2-.7-1.7-1.3-1.7-1.9s1.1-1.8,3.5-1.8h3.3c5.3,0,12-1.6,20.1-4.7A294.7,294.7,0,0,1,402.2,291a192.5,192.5,0,0,1,24.1-26.8,39.9,39.9,0,0,1,9.9-6.8,21.4,21.4,0,0,1,8.8-2.2,10.3,10.3,0,0,1,7.6,3.1c2.1,2,3.1,5.2,3.1,9.6a19.9,19.9,0,0,1-1.6,7.5c-3.1,7.7-9,15.2-17.9,22.7l-6.9,5.5-7,5.1c-5,3.3-10.1,6.4-15.4,9.3a161.6,161.6,0,0,1-15.8,7.6,247.4,247.4,0,0,0-19,40.4c-5,14.5-7.7,26.8-7.9,37,0,4.7,1,7,3.2,7a4.7,4.7,0,0,0,2.2-.5l3-1.2a64.2,64.2,0,0,0,9.2-6.5,95,95,0,0,0,7.7-7.8,46.4,46.4,0,0,0,3.6-4.2l4.9-6,6.6-8.1c2.3-2.8,4.4-5.4,6.4-7.7s4.7-5.5,7-8.1a2.1,2.1,0,0,1,1.6-.9c1.4,0,2.1.8,2.1,2.3a3.2,3.2,0,0,1-1,2.3l-4.2,5.1-4.1,4.9-4.1,4.8-7.2,8.6-7.6,9.2-7.3,8.7c-2.2,2.6-4.1,4.6-5.5,6C374.4,416.9,368,419.9,361.6,419.9Zm79.5-156.6c-7.3,5.7-14.9,13.4-22.8,22.9A263.5,263.5,0,0,0,395.7,318a166.8,166.8,0,0,0,16.8-9.9,162.9,162.9,0,0,0,16.1-12.3,100.7,100.7,0,0,0,13-13.2c3.6-4.6,6.2-8.9,7.6-13.1a16,16,0,0,0,.7-4.1c0-2.9-1.2-4.4-3.5-4.4S443,261.8,441.1,263.3Z" transform="translate(0 -23)" fill="#fff"/><path d="M424.2,414.3a13.1,13.1,0,0,1-11.4-5.9c-2.6-4-3.9-9.4-3.9-16.3a64.2,64.2,0,0,1,.5-7.4,67.2,67.2,0,0,1,6-20.2,103.5,103.5,0,0,1,12.8-20.8A45,45,0,0,1,441.3,332a27.7,27.7,0,0,1,14-4.1,18.6,18.6,0,0,1,8.7,1.9c3,1.8,4.5,4.7,4.5,9a20.8,20.8,0,0,1-3.1,10.1c-2.2,3.7-5.8,7.2-10.9,10.6a83.5,83.5,0,0,1-16.7,8.4,46.9,46.9,0,0,1-10.8,2.5,26.6,26.6,0,0,0-2.5,5.9,72.2,72.2,0,0,0-2.3,8.3,71.1,71.1,0,0,0-1.4,7.7v1.5a8.1,8.1,0,0,0-.1,1.6q0,12,7.5,12,4.1,0,9.3-3a79.6,79.6,0,0,0,10.2-7.2c3.3-2.8,6.3-5.6,8.9-8.2a80.2,80.2,0,0,0,5.6-5.9l13-15.1,3.5-4.1,1.8-2.1,1.7-1.9a2.1,2.1,0,0,1,1.6-.9,1.8,1.8,0,0,1,2,2.1,4.8,4.8,0,0,1-1.1,2.5l-3.9,5.1-4.2,4.9-6,7.2-7.5,9.1a112.6,112.6,0,0,1-7.9,8.5C444.2,409,433.9,414.3,424.2,414.3Zm5.6-48.8a33.7,33.7,0,0,0,8.4-3.7q4.8-2.9,9.3-6c3-2.1,5.3-3.8,7-5.2a23.3,23.3,0,0,0,5.6-6.7,14.2,14.2,0,0,0,1.9-6.4c0-2.4-1-3.7-3-3.7a9.2,9.2,0,0,0-3,.7c-2.8,1.3-5.8,3.8-9.1,7.4a127.9,127.9,0,0,0-9.4,12C434.5,358.2,431.9,362.1,429.8,365.5Z" transform="translate(0 -23)" fill="#fff"/><path d="M464.8,416.9c-4.7.3-8.3-.5-11-2.6a8.9,8.9,0,0,1-3.9-7.3,11.1,11.1,0,0,1,1.8-5.7,18,18,0,0,1,5.9-5.2,46.8,46.8,0,0,1,11-4.7c3.9-1.2,8-2.3,12.1-3.2l6.1-1.5L493,385l3.1-6.6a87.8,87.8,0,0,0,3.9-10.9c1.3-4.4,2.5-8.9,3.5-13.7a107.1,107.1,0,0,0,2.3-12.6c-4.6,4.7-9,9.5-13.3,14.5l-15.9,17.9c-.8,1.2-1.6,1.8-2.3,1.8s-1.4-.7-1.4-2.1a8.3,8.3,0,0,1,2.3-5.1L487.9,353c2-2.4,4.1-4.9,6.4-7.4s4.7-5,7.3-7.5l4.2-4.3c1.8-9.8,5.4-14.7,10.9-14.7a7.3,7.3,0,0,1,4.8,1.5,4.5,4.5,0,0,1,1.7,3.7,6.7,6.7,0,0,1-.1,1.6l-.6.7a20.8,20.8,0,0,0-4.5,3.3c-2.3,1.9-4.5,3.9-6.7,5.9.1,1,.2,2.2.2,3.3s.1,2.5.1,3.9a165.6,165.6,0,0,1-1.6,20.9c-.4,2.6-.9,5.2-1.4,7.8s-1.2,5.1-1.9,7.5a66.5,66.5,0,0,0,7.6-5,74.9,74.9,0,0,0,6.8-6l1.1-1.1a28.5,28.5,0,0,0,2.3-2.6,29.2,29.2,0,0,1,2.3-2.9,1.7,1.7,0,0,1,1.4-.7,1.9,1.9,0,0,1,1.5.8,2.9,2.9,0,0,1,.6,1.7,2,2,0,0,1-.5,1.4,62.3,62.3,0,0,1-7.3,8.6c-4.5,4.4-10.5,8.5-17.9,12.5Q493.2,415,464.8,416.9Zm-3.8-5.8a21.7,21.7,0,0,0,4-.5,40.1,40.1,0,0,0,11.9-5.7c4.1-2.8,8.2-7.2,12.2-13.2l-6.6,1.7-6.6,1.7a54.5,54.5,0,0,0-14.9,5.8,11.1,11.1,0,0,0-4.1,3.4,6.1,6.1,0,0,0-1.2,3.3C455.7,409.9,457.4,411.1,461,411.1Z" transform="translate(0 -23)" fill="#fff"/><path d="M538.5,321.5h27.1l-2.1,7.4h-27Z" transform="translate(0 -23)" fill="#fff"/><path d="M605,292.5c6.5,0,11.2.9,14,2.8a8.3,8.3,0,0,1,4.2,7.3,12.2,12.2,0,0,1-2.7,7.4,19.6,19.6,0,0,1-8,5.5,37.9,37.9,0,0,1-12.7,2.3c6.3-.1,11.2.9,14.7,3.1s5.2,4.8,5.2,8.1a13.5,13.5,0,0,1-1.8,7,14.4,14.4,0,0,1-5.2,5.2,25.6,25.6,0,0,1-8.2,3.3,53.5,53.5,0,0,1-11,1H566.9l.3-1.5a17.9,17.9,0,0,0,4-.6,3.9,3.9,0,0,0,2.2-1.8,12,12,0,0,0,1.5-4l9.9-37.2a28.1,28.1,0,0,0,.7-3.7,2.2,2.2,0,0,0-1.1-2c-.7-.5-2.1-.7-4-.8l.4-1.5,3.9.2H605Zm-13.7,26.1.3-1.3h5a9.6,9.6,0,0,0,6.6-2.4,15.4,15.4,0,0,0,3.9-6.4,25.7,25.7,0,0,0,1.4-8.2,12.5,12.5,0,0,0-.8-4.5,3.5,3.5,0,0,0-3.5-1.9,2.7,2.7,0,0,0-2.3,1.1,12.8,12.8,0,0,0-1.6,4.3l-10.1,38.3a21.4,21.4,0,0,0-.6,2.7,4,4,0,0,0,.4,2.5c.4.7,1.2,1,2.5,1a8.2,8.2,0,0,0,5.9-2.4,16.4,16.4,0,0,0,3.9-6.1,20.8,20.8,0,0,0,1.5-7.8,14.9,14.9,0,0,0-.6-4.3,7.1,7.1,0,0,0-2.2-3.3,6.8,6.8,0,0,0-4.4-1.3Z" transform="translate(0 -23)" fill="#fff"/><path d="M636.4,339.2q-.4,1.8,0,2.4a1.5,1.5,0,0,0,1.2.7,3.1,3.1,0,0,0,1.5-.7c.8-.5,1.5-1.8,2.3-4l1.6-4.2h1.4l-1.8,5.5a12.4,12.4,0,0,1-3,4.8,9.8,9.8,0,0,1-3.9,2.3,13.1,13.1,0,0,1-3.8.6,10,10,0,0,1-4.1-.8,6.8,6.8,0,0,1-2.8-2.5,7.9,7.9,0,0,1-1-4,15.1,15.1,0,0,1,.9-5.6l11.4-38.2c.5-1.7.5-2.9-.1-3.7s-2.1-1.2-4.6-1.2l.5-1.6a70.9,70.9,0,0,0,11-.9,54.9,54.9,0,0,0,9.1-2.2Z" transform="translate(0 -23)" fill="#fff"/><path d="M647.9,333.8a32.4,32.4,0,0,1,4-15,25.3,25.3,0,0,1,5.1-6.7,23.6,23.6,0,0,1,7.4-4.8,26.1,26.1,0,0,1,9.6-1.7c4.3,0,7.7,1.1,9.9,3.3s3.4,5.3,3.4,9.4a32.5,32.5,0,0,1-.9,7.4,38.3,38.3,0,0,1-3,7.7,30.2,30.2,0,0,1-5.2,6.7,21.3,21.3,0,0,1-7.3,4.7,24.7,24.7,0,0,1-9.7,1.8q-6.5,0-9.9-3.3C649,341.1,647.9,337.9,647.9,333.8Zm25.7-26.7q-1.2,0-3,2.1a33.8,33.8,0,0,0-3.5,5.7,61.9,61.9,0,0,0-3.3,8.1,54.4,54.4,0,0,0-2.5,9,47.6,47.6,0,0,0-1,8.9,12.2,12.2,0,0,0,.4,3.3,1.1,1.1,0,0,0,1.1.9c.8,0,1.7-.7,2.9-2a35.7,35.7,0,0,0,3.4-5.5,57.2,57.2,0,0,0,3.3-7.8,63.9,63.9,0,0,0,2.5-9.1,43.3,43.3,0,0,0,1-9.3,9,9,0,0,0-.4-3.6A.9.9,0,0,0,673.6,307.1Z" transform="translate(0 -23)" fill="#fff"/><path d="M706.3,328.5l4.5-.6-5.2,2.1a16.5,16.5,0,0,0-3.1,1.7c-.7.5-1.1,1-1.1,1.5s.3.7.8,1a9,9,0,0,0,1.9.8l6.8,2.6a24.2,24.2,0,0,1,4,1.9,8.9,8.9,0,0,1,3.2,2.9,6.7,6.7,0,0,1,1.3,4.3,8.9,8.9,0,0,1-2.1,5.9,18.1,18.1,0,0,1-5.8,4,35.4,35.4,0,0,1-7.6,2.3,43.7,43.7,0,0,1-7.9.7,33.8,33.8,0,0,1-7.2-.7,16.2,16.2,0,0,1-5.5-2,3.5,3.5,0,0,1-2.1-3,3.1,3.1,0,0,1,1.6-2.7,13.6,13.6,0,0,1,4.2-1.7,29.7,29.7,0,0,1,5.2-.8,25.2,25.2,0,0,1,4.7-.1v1.1a11.2,11.2,0,0,0-3.4,2.7,4.1,4.1,0,0,0-1,2.6,2.9,2.9,0,0,0,1.3,2.5,6,6,0,0,0,3.6.9,18.9,18.9,0,0,0,3.9-.5,17.4,17.4,0,0,0,3.8-1.4,13,13,0,0,0,2.8-2.2,4.3,4.3,0,0,0,1.1-2.8,2.4,2.4,0,0,0-1.2-2.2,16.9,16.9,0,0,0-3.2-1.1l-10.2-3.3a9.2,9.2,0,0,1-3.3-1.9,3.9,3.9,0,0,1-1.5-3.2,5.7,5.7,0,0,1,2.3-4.3,27.2,27.2,0,0,1,6-3.5Zm4.8-22.9a18.2,18.2,0,0,1,8.8,2,7.1,7.1,0,0,1,3.5,6.6,12.4,12.4,0,0,1-2.4,7.1,17.9,17.9,0,0,1-6.9,5.7,23.3,23.3,0,0,1-10.6,2.3,16.5,16.5,0,0,1-8.7-2.1,6.8,6.8,0,0,1-3.6-6.5,11.3,11.3,0,0,1,1.4-5.3,16.2,16.2,0,0,1,3.9-4.9,18.4,18.4,0,0,1,6.3-3.5A23.7,23.7,0,0,1,711.1,305.6Zm-1.9,1.4a2.4,2.4,0,0,0-1.6.9,8.3,8.3,0,0,0-1.5,2.4,25.3,25.3,0,0,0-1.2,3.6,29.2,29.2,0,0,0-.8,4.6,41.2,41.2,0,0,0-.3,5.1,12.4,12.4,0,0,0,.3,3.4,1.1,1.1,0,0,0,1.1.9,2.5,2.5,0,0,0,2.1-1.4,11.6,11.6,0,0,0,1.8-3.7,21.4,21.4,0,0,0,1.2-5.4,42.1,42.1,0,0,0,.4-6.2,13.2,13.2,0,0,0-.2-2.9C710.3,307.4,709.9,307,709.2,307Zm8.2,2.6-1.6-.5a11.5,11.5,0,0,1,3.8-5.1,9.2,9.2,0,0,1,5.5-1.9,5.3,5.3,0,0,1,3.9,1.4,5.6,5.6,0,0,1,1.2,3.6,4.4,4.4,0,0,1-1.1,3.3,3.3,3.3,0,0,1-2.5,1.2,3.5,3.5,0,0,1-2.3-.9,5.3,5.3,0,0,1-1.4-3,9.7,9.7,0,0,1,.9-4.9l.3.5a13,13,0,0,0-4.1,2.4A12.6,12.6,0,0,0,717.4,309.6Z" transform="translate(0 -23)" fill="#fff"/><path d="M731.7,321.5h27.1l-2,7.4H729.7Z" transform="translate(0 -23)" fill="#fff"/></g></g></svg>